<svg width="58" height="58" viewBox="0 0 58 58" fill="none" xmlns="http://www.w3.org/2000/svg">
<g id="3 - News  1">
<path id="Vector" d="M18.125 14.5C17.6833 14.5001 17.2569 14.6615 16.9258 14.9539C16.5947 15.2463 16.3818 15.6495 16.327 16.0878L14.5145 30.5877C14.4826 30.8427 14.5054 31.1015 14.5811 31.3471C14.6569 31.5926 14.7841 31.8192 14.9541 32.0119C15.1241 32.2045 15.3332 32.3588 15.5674 32.4645C15.8016 32.5702 16.0556 32.6249 16.3125 32.625H27.1875V39.933C24.0591 40.1324 21.75 40.8429 21.75 41.6875C21.75 42.688 24.9944 43.5 29 43.5C33.0056 43.5 36.25 42.688 36.25 41.6875C36.25 40.8429 33.9409 40.1324 30.8125 39.933V32.625H41.6875C41.9445 32.6249 42.1985 32.5702 42.4327 32.4645C42.6669 32.3588 42.8759 32.2045 43.0459 32.0119C43.216 31.8192 43.3431 31.5926 43.4189 31.3471C43.4947 31.1015 43.5174 30.8427 43.4855 30.5877L41.673 16.0878C41.6182 15.6495 41.4053 15.2463 41.0742 14.9539C40.7431 14.6615 40.3167 14.5001 39.875 14.5H18.125ZM25.375 28.2025V18.9225C25.375 18.5745 25.7593 18.357 26.0638 18.5382L33.785 23.1746C33.8518 23.215 33.907 23.2719 33.9454 23.3398C33.9837 23.4078 34.0039 23.4845 34.0039 23.5625C34.0039 23.6405 33.9837 23.7172 33.9454 23.7852C33.907 23.8531 33.8518 23.91 33.785 23.9504L26.0638 28.5904C25.9945 28.6326 25.9151 28.6554 25.834 28.6565C25.7529 28.6575 25.673 28.6368 25.6026 28.5964C25.5322 28.556 25.474 28.4975 25.4339 28.427C25.3939 28.3564 25.3736 28.2764 25.375 28.1952V28.2025Z" fill="#005BC0"/>
<path id="Vector_2" d="M7.25 7.25C7.25 5.32718 8.01384 3.48311 9.37348 2.12348C10.7331 0.763837 12.5772 0 14.5 0L43.5 0C45.4228 0 47.2669 0.763837 48.6265 2.12348C49.9862 3.48311 50.75 5.32718 50.75 7.25V50.75C50.75 52.6728 49.9862 54.5169 48.6265 55.8765C47.2669 57.2362 45.4228 58 43.5 58H14.5C12.5772 58 10.7331 57.2362 9.37348 55.8765C8.01384 54.5169 7.25 52.6728 7.25 50.75V7.25ZM43.5 3.625H14.5C13.5386 3.625 12.6166 4.00692 11.9367 4.68674C11.2569 5.36656 10.875 6.28859 10.875 7.25V50.75C10.875 51.7114 11.2569 52.6334 11.9367 53.3133C12.6166 53.9931 13.5386 54.375 14.5 54.375H43.5C44.4614 54.375 45.3834 53.9931 46.0633 53.3133C46.7431 52.6334 47.125 51.7114 47.125 50.75V7.25C47.125 6.28859 46.7431 5.36656 46.0633 4.68674C45.3834 4.00692 44.4614 3.625 43.5 3.625Z" fill="#005BC0"/>
</g>
</svg>
