<svg width="58" height="58" viewBox="0 0 58 58" fill="none" xmlns="http://www.w3.org/2000/svg">
<g id="2 - calendar-event 1" clip-path="url(#clip0_102_2436)">
<path id="Vector" d="M39.875 23.5625C39.875 23.0818 40.066 22.6208 40.4059 22.2809C40.7458 21.941 41.2068 21.75 41.6875 21.75H45.3125C45.7932 21.75 46.2542 21.941 46.5941 22.2809C46.934 22.6208 47.125 23.0818 47.125 23.5625V27.1875C47.125 27.6682 46.934 28.1292 46.5941 28.4691C46.2542 28.809 45.7932 29 45.3125 29H41.6875C41.2068 29 40.7458 28.809 40.4059 28.4691C40.066 28.1292 39.875 27.6682 39.875 27.1875V23.5625Z" fill="#005BC0"/>
<path id="Vector_2" d="M12.6875 0C13.1682 0 13.6292 0.190959 13.9691 0.530869C14.309 0.870779 14.5 1.3318 14.5 1.8125V3.625H43.5V1.8125C43.5 1.3318 43.691 0.870779 44.0309 0.530869C44.3708 0.190959 44.8318 0 45.3125 0C45.7932 0 46.2542 0.190959 46.5941 0.530869C46.934 0.870779 47.125 1.3318 47.125 1.8125V3.625H50.75C52.6728 3.625 54.5169 4.38884 55.8765 5.74848C57.2362 7.10811 58 8.95218 58 10.875V50.75C58 52.6728 57.2362 54.5169 55.8765 55.8765C54.5169 57.2362 52.6728 58 50.75 58H7.25C5.32718 58 3.48311 57.2362 2.12348 55.8765C0.763837 54.5169 0 52.6728 0 50.75V10.875C0 8.95218 0.763837 7.10811 2.12348 5.74848C3.48311 4.38884 5.32718 3.625 7.25 3.625H10.875V1.8125C10.875 1.3318 11.066 0.870779 11.4059 0.530869C11.7458 0.190959 12.2068 0 12.6875 0ZM3.625 14.5V50.75C3.625 51.7114 4.00692 52.6334 4.68674 53.3133C5.36656 53.9931 6.28859 54.375 7.25 54.375H50.75C51.7114 54.375 52.6334 53.9931 53.3133 53.3133C53.9931 52.6334 54.375 51.7114 54.375 50.75V14.5H3.625Z" fill="#005BC0"/>
</g>
<defs>
<clipPath id="clip0_102_2436">
<rect width="58" height="58" fill="white"/>
</clipPath>
</defs>
</svg>
