<svg width="40" height="36" viewBox="0 0 40 36" fill="none" xmlns="http://www.w3.org/2000/svg">
<g id="Group 39784">
<path id="Vector" d="M2.01904 23.2289C2.33704 23.2289 2.64202 23.361 2.86688 23.5963C3.09174 23.8316 3.21807 24.1506 3.21807 24.4833V30.7556C3.21807 31.421 3.47072 32.0591 3.92044 32.5296C4.37017 33.0001 4.98013 33.2645 5.61613 33.2645H34.3929C35.0289 33.2645 35.6388 33.0001 36.0886 32.5296C36.5383 32.0591 36.7909 31.421 36.7909 30.7556V24.4833C36.7909 24.1506 36.9173 23.8316 37.1421 23.5963C37.367 23.361 37.672 23.2289 37.99 23.2289C38.308 23.2289 38.6129 23.361 38.8378 23.5963C39.0627 23.8316 39.189 24.1506 39.189 24.4833V30.7556C39.189 32.0864 38.6837 33.3627 37.7842 34.3037C36.8848 35.2447 35.6649 35.7733 34.3929 35.7733H5.61613C4.34412 35.7733 3.12421 35.2447 2.22476 34.3037C1.32531 33.3627 0.820007 32.0864 0.820007 30.7556V24.4833C0.820007 24.1506 0.946333 23.8316 1.1712 23.5963C1.39606 23.361 1.70104 23.2289 2.01904 23.2289Z" fill="white"/>
<path id="Vector_2" d="M19.1554 28.1315C19.2668 28.2484 19.3991 28.341 19.5448 28.4043C19.6905 28.4675 19.8467 28.5001 20.0044 28.5001C20.1621 28.5001 20.3182 28.4675 20.4639 28.4043C20.6096 28.341 20.7419 28.2484 20.8533 28.1315L28.0475 20.6049C28.2726 20.3693 28.3991 20.0498 28.3991 19.7167C28.3991 19.3836 28.2726 19.0641 28.0475 18.8286C27.8223 18.593 27.517 18.4607 27.1986 18.4607C26.8802 18.4607 26.5748 18.593 26.3496 18.8286L21.2034 24.2152V2.15447C21.2034 1.82177 21.0771 1.5027 20.8522 1.26744C20.6273 1.03219 20.3224 0.900024 20.0044 0.900024C19.6864 0.900024 19.3814 1.03219 19.1565 1.26744C18.9317 1.5027 18.8053 1.82177 18.8053 2.15447V24.2152L13.6591 18.8286C13.4339 18.593 13.1286 18.4607 12.8102 18.4607C12.4918 18.4607 12.1864 18.593 11.9613 18.8286C11.7361 19.0641 11.6096 19.3836 11.6096 19.7167C11.6096 20.0498 11.7361 20.3693 11.9613 20.6049L19.1554 28.1315Z" fill="white"/>
</g>
</svg>
