<svg width="71" height="53" viewBox="0 0 71 53" fill="none" xmlns="http://www.w3.org/2000/svg">
<path id="Vector" d="M59.9062 4.41667C60.4947 4.41667 61.059 4.64933 61.4751 5.06347C61.8912 5.47762 62.125 6.03931 62.125 6.625V39.75H8.875V6.625C8.875 6.03931 9.10876 5.47762 9.52486 5.06347C9.94095 4.64933 10.5053 4.41667 11.0937 4.41667H59.9062ZM11.0937 0C9.3284 0 7.63536 0.697989 6.38707 1.94042C5.13878 3.18285 4.4375 4.86794 4.4375 6.625V44.1667H66.5625V6.625C66.5625 4.86794 65.8612 3.18285 64.6129 1.94042C63.3646 0.697989 61.6716 0 59.9062 0H11.0937ZM0 46.375H71C71 48.1321 70.2987 49.8172 69.0504 51.0596C67.8021 52.302 66.1091 53 64.3438 53H6.65625C4.8909 53 3.19786 52.302 1.94957 51.0596C0.701281 49.8172 0 48.1321 0 46.375Z" fill="#005BC0"/>
</svg>
